<svg width="50" height="51" viewBox="0 0 50 51" fill="none" xmlns="http://www.w3.org/2000/svg">
<g clip-path="url(#clip0_0_557)">
<rect y="0.830811" width="50" height="50" rx="19" fill="#F03E3D"/>
<path d="M25 33.9737C25.1429 33.9737 25.2857 33.9201 25.3929 33.813L30.9554 28.4558C31.0357 28.3755 33 26.5808 33 24.438C33 21.8219 31.4018 20.2594 28.7321 20.2594C27.1696 20.2594 25.7054 21.4915 25 22.188C24.2946 21.4915 22.8304 20.2594 21.2679 20.2594C18.5982 20.2594 17 21.8219 17 24.438C17 26.5808 18.9643 28.3755 19.0357 28.438L24.6071 33.813C24.7143 33.9201 24.8571 33.9737 25 33.9737Z" fill="white"/>
</g>
<defs>
<clipPath id="clip0_0_557">
<rect width="50" height="50" fill="white" transform="translate(0 0.830811)"/>
</clipPath>
</defs>
</svg>
