<svg width="50" height="51" viewBox="0 0 50 51" fill="none" xmlns="http://www.w3.org/2000/svg">
<g clip-path="url(#clip0_0_565)">
<rect y="0.830811" width="50" height="50" rx="19" fill="#4DADF7"/>
<path d="M30.5714 20.2594H31.4286C31.5893 20.2594 31.7143 20.1344 31.7143 19.9737V19.4022C31.7143 19.2415 31.5893 19.1165 31.4286 19.1165H18.2857C18.125 19.1165 18 19.2415 18 19.4022V19.9737C18 20.1344 18.125 20.2594 18.2857 20.2594H19.1429C19.1429 23.563 20.7232 25.9558 22.4732 27.1165C20.7232 28.2772 19.1429 30.6701 19.1429 33.9737H18.2857C18.125 33.9737 18 34.0987 18 34.2594V34.8308C18 34.9915 18.125 35.1165 18.2857 35.1165H31.4286C31.5893 35.1165 31.7143 34.9915 31.7143 34.8308V34.2594C31.7143 34.0987 31.5893 33.9737 31.4286 33.9737H30.5714C30.5714 30.6701 28.9911 28.2772 27.2411 27.1165C28.9911 25.9558 30.5714 23.563 30.5714 20.2594ZM29.4286 20.2594C29.4286 21.563 29.1339 22.7147 28.6696 23.688H21.0446C20.5804 22.7147 20.2857 21.563 20.2857 20.2594H29.4286ZM28.9196 31.1165H20.7946C21.4554 29.3933 22.6429 28.1701 23.8304 27.688H25.8839C27.0714 28.1701 28.2589 29.3933 28.9196 31.1165Z" fill="white"/>
</g>
<defs>
<clipPath id="clip0_0_565">
<rect width="50" height="50" fill="white" transform="translate(0 0.830811)"/>
</clipPath>
</defs>
</svg>
