<svg width="50" height="51" viewBox="0 0 50 51" fill="none" xmlns="http://www.w3.org/2000/svg">
<g clip-path="url(#clip0_0_549)">
<rect y="0.830811" width="50" height="50" rx="19" fill="#FAB005"/>
<path d="M25.4821 25.4737L26.6518 26.0183L28.3929 25.5005V24.2862C28.3929 22.2237 26.6518 20.5719 24.5714 20.5719C22.5 20.5719 20.75 22.2147 20.75 24.2594V29.7951C20.75 30.304 20.3393 30.7058 19.8393 30.7058C19.3393 30.7058 18.9286 30.304 18.9286 29.7951V27.4558H16C16 29.804 16 29.8308 16 29.8308C16 31.9469 17.7143 33.6612 19.8304 33.6612C21.9286 33.6612 23.6607 31.9737 23.6607 29.8844V24.4201C23.6607 23.9201 24.0714 23.5094 24.5714 23.5094C25.0714 23.5094 25.4821 23.9201 25.4821 24.4201V25.4737ZM30.2143 27.4558V29.9112C30.2143 30.4112 29.8036 30.813 29.3036 30.813C28.8036 30.813 28.3929 30.4112 28.3929 29.9112V27.5005L26.6518 28.0183L25.4821 27.4737V29.8665C25.4821 31.9647 27.2054 33.6612 29.3125 33.6612C31.4286 33.6612 33.1429 31.9469 33.1429 29.8308C33.1429 29.8308 33.1429 29.804 33.1429 27.4558H30.2143Z" fill="white"/>
</g>
<defs>
<clipPath id="clip0_0_549">
<rect width="50" height="50" fill="white" transform="translate(0 0.830811)"/>
</clipPath>
</defs>
</svg>
