<svg width="51" height="51" viewBox="0 0 51 51" fill="none" xmlns="http://www.w3.org/2000/svg">
<g clip-path="url(#clip0_0_541)">
<rect y="0.830811" width="50" height="50" rx="19" fill="#7752BE"/>
<path d="M29.1161 28.429L19.9732 19.2862C19.8661 19.1701 19.7232 19.1165 19.5714 19.1165C19.5 19.1165 19.4196 19.1344 19.3571 19.1612C19.1429 19.2505 19 19.4558 19 19.688V33.1165C19 33.3487 19.1429 33.554 19.3571 33.6433C19.4196 33.6701 19.5 33.688 19.5714 33.688C19.7232 33.688 19.8661 33.6255 19.9732 33.5183L22.7589 30.7326L24.4643 34.7683C24.5893 35.054 24.9196 35.1969 25.2143 35.0719L26.7946 34.4022C27.0804 34.2772 27.2232 33.9469 27.0982 33.6522L25.3036 29.4022H28.7143C28.9464 29.4022 29.1518 29.2594 29.2411 29.0451C29.3304 28.8397 29.2857 28.5897 29.1161 28.429Z" fill="white"/>
</g>
<defs>
<clipPath id="clip0_0_541">
<rect width="51" height="50" fill="white" transform="translate(0 0.830811)"/>
</clipPath>
</defs>
</svg>
